<mxfile host="app.diagrams.net" modified="2023-06-21T18:09:54.606Z" agent="Mozilla/5.0 (X11; Linux x86_64) AppleWebKit/537.36 (KHTML, like Gecko) Chrome/114.0.0.0 Safari/537.36" etag="cegi-gdA4AW-uf0rJj8d" version="21.4.0" type="device" pages="2">
  <diagram id="0ZGvJO6-7t8mPpAxKSV6" name="Página-1">
    <mxGraphModel dx="1360" dy="746" grid="1" gridSize="10" guides="1" tooltips="1" connect="1" arrows="1" fold="1" page="1" pageScale="1" pageWidth="827" pageHeight="1169" math="0" shadow="0">
      <root>
        <mxCell id="0" />
        <mxCell id="1" parent="0" />
        <mxCell id="QCXPvPY8s-q1p6xJHHhA-1" value="Libro" style="swimlane;fontStyle=0;childLayout=stackLayout;horizontal=1;startSize=26;fillColor=none;horizontalStack=0;resizeParent=1;resizeParentMax=0;resizeLast=0;collapsible=1;marginBottom=0;" parent="1" vertex="1">
          <mxGeometry x="19" y="394" width="140" height="156" as="geometry" />
        </mxCell>
        <mxCell id="QCXPvPY8s-q1p6xJHHhA-2" value="- clasificacion: String" style="text;strokeColor=none;fillColor=none;align=left;verticalAlign=top;spacingLeft=4;spacingRight=4;overflow=hidden;rotatable=0;points=[[0,0.5],[1,0.5]];portConstraint=eastwest;" parent="QCXPvPY8s-q1p6xJHHhA-1" vertex="1">
          <mxGeometry y="26" width="140" height="26" as="geometry" />
        </mxCell>
        <mxCell id="Nirqhqslk2zgD3UvHYaP-4" value="- ISBN: String" style="text;strokeColor=none;fillColor=none;align=left;verticalAlign=top;spacingLeft=4;spacingRight=4;overflow=hidden;rotatable=0;points=[[0,0.5],[1,0.5]];portConstraint=eastwest;" vertex="1" parent="QCXPvPY8s-q1p6xJHHhA-1">
          <mxGeometry y="52" width="140" height="26" as="geometry" />
        </mxCell>
        <mxCell id="QCXPvPY8s-q1p6xJHHhA-3" value="- titulo: String" style="text;strokeColor=none;fillColor=none;align=left;verticalAlign=top;spacingLeft=4;spacingRight=4;overflow=hidden;rotatable=0;points=[[0,0.5],[1,0.5]];portConstraint=eastwest;" parent="QCXPvPY8s-q1p6xJHHhA-1" vertex="1">
          <mxGeometry y="78" width="140" height="26" as="geometry" />
        </mxCell>
        <mxCell id="QCXPvPY8s-q1p6xJHHhA-4" value="- anio: String" style="text;strokeColor=none;fillColor=none;align=left;verticalAlign=top;spacingLeft=4;spacingRight=4;overflow=hidden;rotatable=0;points=[[0,0.5],[1,0.5]];portConstraint=eastwest;" parent="QCXPvPY8s-q1p6xJHHhA-1" vertex="1">
          <mxGeometry y="104" width="140" height="26" as="geometry" />
        </mxCell>
        <mxCell id="xj_UWrbpGZIaAI9t697L-1" value="- anio: String" style="text;strokeColor=none;fillColor=none;align=left;verticalAlign=top;spacingLeft=4;spacingRight=4;overflow=hidden;rotatable=0;points=[[0,0.5],[1,0.5]];portConstraint=eastwest;" vertex="1" parent="QCXPvPY8s-q1p6xJHHhA-1">
          <mxGeometry y="130" width="140" height="26" as="geometry" />
        </mxCell>
        <mxCell id="4_R0uis-ufL3FPCW5JWK-5" style="edgeStyle=orthogonalEdgeStyle;rounded=0;orthogonalLoop=1;jettySize=auto;html=1;entryX=0.338;entryY=1;entryDx=0;entryDy=0;entryPerimeter=0;endArrow=block;endFill=0;" edge="1" parent="1" source="QCXPvPY8s-q1p6xJHHhA-5" target="Nirqhqslk2zgD3UvHYaP-2">
          <mxGeometry relative="1" as="geometry">
            <mxPoint x="378.03999999999996" y="730.988" as="targetPoint" />
          </mxGeometry>
        </mxCell>
        <mxCell id="QCXPvPY8s-q1p6xJHHhA-5" value="Autor" style="swimlane;fontStyle=0;childLayout=stackLayout;horizontal=1;startSize=26;fillColor=none;horizontalStack=0;resizeParent=1;resizeParentMax=0;resizeLast=0;collapsible=1;marginBottom=0;" parent="1" vertex="1">
          <mxGeometry x="254" y="768" width="160" height="52" as="geometry" />
        </mxCell>
        <mxCell id="QCXPvPY8s-q1p6xJHHhA-8" value="# profesion: String" style="text;strokeColor=none;fillColor=none;align=left;verticalAlign=top;spacingLeft=4;spacingRight=4;overflow=hidden;rotatable=0;points=[[0,0.5],[1,0.5]];portConstraint=eastwest;" parent="QCXPvPY8s-q1p6xJHHhA-5" vertex="1">
          <mxGeometry y="26" width="160" height="26" as="geometry" />
        </mxCell>
        <mxCell id="QCXPvPY8s-q1p6xJHHhA-9" value="Editorial" style="swimlane;fontStyle=0;childLayout=stackLayout;horizontal=1;startSize=26;fillColor=none;horizontalStack=0;resizeParent=1;resizeParentMax=0;resizeLast=0;collapsible=1;marginBottom=0;" parent="1" vertex="1">
          <mxGeometry x="289" y="434" width="140" height="104" as="geometry" />
        </mxCell>
        <mxCell id="QCXPvPY8s-q1p6xJHHhA-10" value="- nombre: String" style="text;strokeColor=none;fillColor=none;align=left;verticalAlign=top;spacingLeft=4;spacingRight=4;overflow=hidden;rotatable=0;points=[[0,0.5],[1,0.5]];portConstraint=eastwest;" parent="QCXPvPY8s-q1p6xJHHhA-9" vertex="1">
          <mxGeometry y="26" width="140" height="26" as="geometry" />
        </mxCell>
        <mxCell id="QCXPvPY8s-q1p6xJHHhA-11" value="- ciudad: String" style="text;strokeColor=none;fillColor=none;align=left;verticalAlign=top;spacingLeft=4;spacingRight=4;overflow=hidden;rotatable=0;points=[[0,0.5],[1,0.5]];portConstraint=eastwest;" parent="QCXPvPY8s-q1p6xJHHhA-9" vertex="1">
          <mxGeometry y="52" width="140" height="26" as="geometry" />
        </mxCell>
        <mxCell id="QCXPvPY8s-q1p6xJHHhA-12" value="- direccion: String" style="text;strokeColor=none;fillColor=none;align=left;verticalAlign=top;spacingLeft=4;spacingRight=4;overflow=hidden;rotatable=0;points=[[0,0.5],[1,0.5]];portConstraint=eastwest;" parent="QCXPvPY8s-q1p6xJHHhA-9" vertex="1">
          <mxGeometry y="78" width="140" height="26" as="geometry" />
        </mxCell>
        <mxCell id="QCXPvPY8s-q1p6xJHHhA-18" value="escrito" style="endArrow=open;html=1;endSize=12;startArrow=none;startSize=14;startFill=0;rounded=0;exitX=1.036;exitY=1;exitDx=0;exitDy=0;exitPerimeter=0;entryX=0;entryY=0.5;entryDx=0;entryDy=0;edgeStyle=orthogonalEdgeStyle;" parent="1" source="QCXPvPY8s-q1p6xJHHhA-3" target="QCXPvPY8s-q1p6xJHHhA-8" edge="1">
          <mxGeometry relative="1" as="geometry">
            <mxPoint x="159" y="454" as="sourcePoint" />
            <mxPoint x="254" y="859" as="targetPoint" />
            <Array as="points">
              <mxPoint x="210" y="498" />
              <mxPoint x="210" y="807" />
            </Array>
          </mxGeometry>
        </mxCell>
        <mxCell id="QCXPvPY8s-q1p6xJHHhA-19" value="1" style="edgeLabel;resizable=0;html=1;align=left;verticalAlign=top;" parent="QCXPvPY8s-q1p6xJHHhA-18" connectable="0" vertex="1">
          <mxGeometry x="-1" relative="1" as="geometry">
            <mxPoint y="-104" as="offset" />
          </mxGeometry>
        </mxCell>
        <mxCell id="QCXPvPY8s-q1p6xJHHhA-20" value="1..*" style="edgeLabel;resizable=0;html=1;align=right;verticalAlign=top;" parent="QCXPvPY8s-q1p6xJHHhA-18" connectable="0" vertex="1">
          <mxGeometry x="1" relative="1" as="geometry">
            <mxPoint x="-9" y="-29" as="offset" />
          </mxGeometry>
        </mxCell>
        <mxCell id="QCXPvPY8s-q1p6xJHHhA-21" value="&lt;blockquote style=&quot;margin: 0 0 0 40px; border: none; padding: 0px;&quot;&gt;tiene&lt;/blockquote&gt;" style="endArrow=none;html=1;endSize=12;startArrow=none;startSize=14;startFill=0;edgeStyle=orthogonalEdgeStyle;rounded=0;exitX=0.477;exitY=0.977;exitDx=0;exitDy=0;exitPerimeter=0;entryX=0.5;entryY=0;entryDx=0;entryDy=0;endFill=0;align=center;" parent="1" source="QCXPvPY8s-q1p6xJHHhA-69" target="QCXPvPY8s-q1p6xJHHhA-70" edge="1">
          <mxGeometry x="-0.2451" y="13" relative="1" as="geometry">
            <mxPoint x="289" y="720" as="sourcePoint" />
            <mxPoint x="449" y="720" as="targetPoint" />
            <mxPoint as="offset" />
          </mxGeometry>
        </mxCell>
        <mxCell id="QCXPvPY8s-q1p6xJHHhA-22" value="1" style="edgeLabel;resizable=0;html=1;align=left;verticalAlign=top;" parent="QCXPvPY8s-q1p6xJHHhA-21" connectable="0" vertex="1">
          <mxGeometry x="-1" relative="1" as="geometry" />
        </mxCell>
        <mxCell id="QCXPvPY8s-q1p6xJHHhA-23" value="1" style="edgeLabel;resizable=0;html=1;align=right;verticalAlign=top;" parent="QCXPvPY8s-q1p6xJHHhA-21" connectable="0" vertex="1">
          <mxGeometry x="1" relative="1" as="geometry" />
        </mxCell>
        <mxCell id="QCXPvPY8s-q1p6xJHHhA-24" value="imprimie" style="endArrow=none;html=1;endSize=12;startArrow=none;startSize=14;startFill=0;rounded=0;entryX=-0.014;entryY=0;entryDx=0;entryDy=0;endFill=0;entryPerimeter=0;" parent="1" target="QCXPvPY8s-q1p6xJHHhA-10" edge="1">
          <mxGeometry relative="1" as="geometry">
            <mxPoint x="160" y="460" as="sourcePoint" />
            <mxPoint x="299" y="383" as="targetPoint" />
          </mxGeometry>
        </mxCell>
        <mxCell id="QCXPvPY8s-q1p6xJHHhA-25" value="*" style="edgeLabel;resizable=0;html=1;align=left;verticalAlign=top;" parent="QCXPvPY8s-q1p6xJHHhA-24" connectable="0" vertex="1">
          <mxGeometry x="-1" relative="1" as="geometry">
            <mxPoint y="-19" as="offset" />
          </mxGeometry>
        </mxCell>
        <mxCell id="QCXPvPY8s-q1p6xJHHhA-26" value="1" style="edgeLabel;resizable=0;html=1;align=right;verticalAlign=top;" parent="QCXPvPY8s-q1p6xJHHhA-24" connectable="0" vertex="1">
          <mxGeometry x="1" relative="1" as="geometry">
            <mxPoint y="-23" as="offset" />
          </mxGeometry>
        </mxCell>
        <mxCell id="QCXPvPY8s-q1p6xJHHhA-27" value="" style="triangle;aspect=fixed;fillColor=strokeColor;rotation=-180;" parent="1" vertex="1">
          <mxGeometry x="224" y="439" width="6" height="12" as="geometry" />
        </mxCell>
        <mxCell id="QCXPvPY8s-q1p6xJHHhA-33" style="edgeStyle=orthogonalEdgeStyle;rounded=0;orthogonalLoop=1;jettySize=auto;html=1;startArrow=none;startFill=0;endArrow=block;endFill=0;" parent="1" source="QCXPvPY8s-q1p6xJHHhA-29" edge="1">
          <mxGeometry relative="1" as="geometry">
            <mxPoint x="39" y="550" as="targetPoint" />
          </mxGeometry>
        </mxCell>
        <mxCell id="QCXPvPY8s-q1p6xJHHhA-29" value="Novela" style="html=1;" parent="1" vertex="1">
          <mxGeometry x="9" y="626" width="60" height="26" as="geometry" />
        </mxCell>
        <mxCell id="QCXPvPY8s-q1p6xJHHhA-36" style="edgeStyle=orthogonalEdgeStyle;rounded=0;orthogonalLoop=1;jettySize=auto;html=1;startArrow=none;startFill=0;endArrow=block;endFill=0;" parent="1" source="QCXPvPY8s-q1p6xJHHhA-30" edge="1">
          <mxGeometry relative="1" as="geometry">
            <mxPoint x="80" y="550" as="targetPoint" />
          </mxGeometry>
        </mxCell>
        <mxCell id="QCXPvPY8s-q1p6xJHHhA-30" value="Teatro" style="html=1;" parent="1" vertex="1">
          <mxGeometry x="50" y="684" width="60" height="26" as="geometry" />
        </mxCell>
        <mxCell id="QCXPvPY8s-q1p6xJHHhA-37" style="rounded=0;orthogonalLoop=1;jettySize=auto;html=1;startArrow=none;startFill=0;endArrow=block;endFill=0;entryX=0.686;entryY=1.077;entryDx=0;entryDy=0;entryPerimeter=0;" parent="1" source="QCXPvPY8s-q1p6xJHHhA-31" edge="1" target="xj_UWrbpGZIaAI9t697L-1">
          <mxGeometry relative="1" as="geometry">
            <mxPoint x="116" y="560" as="targetPoint" />
          </mxGeometry>
        </mxCell>
        <mxCell id="QCXPvPY8s-q1p6xJHHhA-31" value="Poesia" style="html=1;" parent="1" vertex="1">
          <mxGeometry x="86" y="626" width="60" height="26" as="geometry" />
        </mxCell>
        <mxCell id="QCXPvPY8s-q1p6xJHHhA-35" style="edgeStyle=orthogonalEdgeStyle;rounded=0;orthogonalLoop=1;jettySize=auto;html=1;startArrow=none;startFill=0;endArrow=block;endFill=0;" parent="1" source="QCXPvPY8s-q1p6xJHHhA-32" edge="1">
          <mxGeometry relative="1" as="geometry">
            <mxPoint x="140" y="550" as="targetPoint" />
          </mxGeometry>
        </mxCell>
        <mxCell id="QCXPvPY8s-q1p6xJHHhA-32" value="Ensayo" style="html=1;" parent="1" vertex="1">
          <mxGeometry x="129" y="660" width="60" height="26" as="geometry" />
        </mxCell>
        <mxCell id="QCXPvPY8s-q1p6xJHHhA-38" value="Copia" style="swimlane;fontStyle=0;childLayout=stackLayout;horizontal=1;startSize=26;fillColor=none;horizontalStack=0;resizeParent=1;resizeParentMax=0;resizeLast=0;collapsible=1;marginBottom=0;" parent="1" vertex="1">
          <mxGeometry x="479" y="394" width="140" height="52" as="geometry" />
        </mxCell>
        <mxCell id="QCXPvPY8s-q1p6xJHHhA-39" value="- identificador: String" style="text;strokeColor=none;fillColor=none;align=left;verticalAlign=top;spacingLeft=4;spacingRight=4;overflow=hidden;rotatable=0;points=[[0,0.5],[1,0.5]];portConstraint=eastwest;" parent="QCXPvPY8s-q1p6xJHHhA-38" vertex="1">
          <mxGeometry y="26" width="140" height="26" as="geometry" />
        </mxCell>
        <mxCell id="QCXPvPY8s-q1p6xJHHhA-43" value="" style="endArrow=none;html=1;edgeStyle=orthogonalEdgeStyle;rounded=0;exitX=1;exitY=0.5;exitDx=0;exitDy=0;entryX=0;entryY=0.5;entryDx=0;entryDy=0;" parent="1" source="QCXPvPY8s-q1p6xJHHhA-3" target="QCXPvPY8s-q1p6xJHHhA-38" edge="1">
          <mxGeometry relative="1" as="geometry">
            <mxPoint x="289" y="454" as="sourcePoint" />
            <mxPoint x="449" y="454" as="targetPoint" />
            <Array as="points">
              <mxPoint x="159" y="420" />
            </Array>
          </mxGeometry>
        </mxCell>
        <mxCell id="QCXPvPY8s-q1p6xJHHhA-44" value="libro" style="edgeLabel;resizable=0;html=1;align=left;verticalAlign=bottom;" parent="QCXPvPY8s-q1p6xJHHhA-43" connectable="0" vertex="1">
          <mxGeometry x="-1" relative="1" as="geometry">
            <mxPoint y="-39" as="offset" />
          </mxGeometry>
        </mxCell>
        <mxCell id="QCXPvPY8s-q1p6xJHHhA-45" value="ejemplar" style="edgeLabel;resizable=0;html=1;align=right;verticalAlign=bottom;" parent="QCXPvPY8s-q1p6xJHHhA-43" connectable="0" vertex="1">
          <mxGeometry x="1" relative="1" as="geometry" />
        </mxCell>
        <mxCell id="QCXPvPY8s-q1p6xJHHhA-46" value="1..*" style="edgeLabel;resizable=0;html=1;align=left;verticalAlign=top;" parent="1" connectable="0" vertex="1">
          <mxGeometry x="449.0000000000001" y="420.00199999999995" as="geometry" />
        </mxCell>
        <mxCell id="QCXPvPY8s-q1p6xJHHhA-47" value="1" style="edgeLabel;resizable=0;html=1;align=left;verticalAlign=top;" parent="1" connectable="0" vertex="1">
          <mxGeometry x="159.0000000000001" y="470.00199999999995" as="geometry" />
        </mxCell>
        <mxCell id="QCXPvPY8s-q1p6xJHHhA-49" value="&lt;&lt;enum&gt;&gt;&#xa;EstadoCopia" style="swimlane;fontStyle=0;childLayout=stackLayout;horizontal=1;startSize=26;fillColor=none;horizontalStack=0;resizeParent=1;resizeParentMax=0;resizeLast=0;collapsible=1;marginBottom=0;" parent="1" vertex="1">
          <mxGeometry x="679" y="360" width="140" height="52" as="geometry" />
        </mxCell>
        <mxCell id="QCXPvPY8s-q1p6xJHHhA-50" value="- identificador: String" style="text;strokeColor=none;fillColor=none;align=left;verticalAlign=top;spacingLeft=4;spacingRight=4;overflow=hidden;rotatable=0;points=[[0,0.5],[1,0.5]];portConstraint=eastwest;" parent="QCXPvPY8s-q1p6xJHHhA-49" vertex="1">
          <mxGeometry y="26" width="140" height="26" as="geometry" />
        </mxCell>
        <mxCell id="QCXPvPY8s-q1p6xJHHhA-53" value="" style="endArrow=open;html=1;endSize=12;startArrow=none;startSize=14;startFill=0;edgeStyle=orthogonalEdgeStyle;rounded=0;exitX=1;exitY=0.25;exitDx=0;exitDy=0;entryX=0;entryY=0.5;entryDx=0;entryDy=0;endFill=0;" parent="1" source="QCXPvPY8s-q1p6xJHHhA-38" target="QCXPvPY8s-q1p6xJHHhA-49" edge="1">
          <mxGeometry relative="1" as="geometry">
            <mxPoint x="168.86000000000013" y="421.99199999999996" as="sourcePoint" />
            <mxPoint x="299" y="369" as="targetPoint" />
          </mxGeometry>
        </mxCell>
        <mxCell id="QCXPvPY8s-q1p6xJHHhA-54" value="1" style="edgeLabel;resizable=0;html=1;align=left;verticalAlign=top;" parent="QCXPvPY8s-q1p6xJHHhA-53" connectable="0" vertex="1">
          <mxGeometry x="-1" relative="1" as="geometry" />
        </mxCell>
        <mxCell id="QCXPvPY8s-q1p6xJHHhA-55" value="1" style="edgeLabel;resizable=0;html=1;align=right;verticalAlign=top;" parent="QCXPvPY8s-q1p6xJHHhA-53" connectable="0" vertex="1">
          <mxGeometry x="1" relative="1" as="geometry" />
        </mxCell>
        <mxCell id="QCXPvPY8s-q1p6xJHHhA-60" style="rounded=0;orthogonalLoop=1;jettySize=auto;html=1;entryX=0.505;entryY=1.115;entryDx=0;entryDy=0;entryPerimeter=0;startArrow=none;startFill=0;endArrow=none;endFill=0;" parent="1" source="QCXPvPY8s-q1p6xJHHhA-56" target="QCXPvPY8s-q1p6xJHHhA-39" edge="1">
          <mxGeometry relative="1" as="geometry" />
        </mxCell>
        <mxCell id="QCXPvPY8s-q1p6xJHHhA-66" style="edgeStyle=orthogonalEdgeStyle;rounded=0;orthogonalLoop=1;jettySize=auto;html=1;entryX=-0.027;entryY=0.129;entryDx=0;entryDy=0;entryPerimeter=0;dashed=1;startArrow=none;startFill=0;endArrow=none;endFill=0;" parent="1" source="QCXPvPY8s-q1p6xJHHhA-56" target="QCXPvPY8s-q1p6xJHHhA-62" edge="1">
          <mxGeometry relative="1" as="geometry" />
        </mxCell>
        <mxCell id="4_R0uis-ufL3FPCW5JWK-6" style="edgeStyle=orthogonalEdgeStyle;rounded=0;orthogonalLoop=1;jettySize=auto;html=1;entryX=0.669;entryY=1;entryDx=0;entryDy=0;entryPerimeter=0;endArrow=block;endFill=0;exitX=0.343;exitY=0;exitDx=0;exitDy=0;exitPerimeter=0;" edge="1" parent="1" source="QCXPvPY8s-q1p6xJHHhA-56" target="Nirqhqslk2zgD3UvHYaP-2">
          <mxGeometry relative="1" as="geometry">
            <mxPoint x="426.03999999999996" y="730" as="targetPoint" />
          </mxGeometry>
        </mxCell>
        <mxCell id="QCXPvPY8s-q1p6xJHHhA-56" value="Lector" style="swimlane;fontStyle=0;childLayout=stackLayout;horizontal=1;startSize=26;fillColor=none;horizontalStack=0;resizeParent=1;resizeParentMax=0;resizeLast=0;collapsible=1;marginBottom=0;" parent="1" vertex="1">
          <mxGeometry x="479" y="820" width="140" height="78" as="geometry" />
        </mxCell>
        <mxCell id="QCXPvPY8s-q1p6xJHHhA-59" value="- correo: String" style="text;strokeColor=none;fillColor=none;align=left;verticalAlign=top;spacingLeft=4;spacingRight=4;overflow=hidden;rotatable=0;points=[[0,0.5],[1,0.5]];portConstraint=eastwest;" parent="QCXPvPY8s-q1p6xJHHhA-56" vertex="1">
          <mxGeometry y="26" width="140" height="26" as="geometry" />
        </mxCell>
        <mxCell id="xj_UWrbpGZIaAI9t697L-2" value="- telefono: String" style="text;strokeColor=none;fillColor=none;align=left;verticalAlign=top;spacingLeft=4;spacingRight=4;overflow=hidden;rotatable=0;points=[[0,0.5],[1,0.5]];portConstraint=eastwest;" vertex="1" parent="QCXPvPY8s-q1p6xJHHhA-56">
          <mxGeometry y="52" width="140" height="26" as="geometry" />
        </mxCell>
        <mxCell id="QCXPvPY8s-q1p6xJHHhA-65" style="edgeStyle=orthogonalEdgeStyle;rounded=0;orthogonalLoop=1;jettySize=auto;html=1;entryX=0.516;entryY=1.059;entryDx=0;entryDy=0;entryPerimeter=0;startArrow=none;startFill=0;endArrow=none;endFill=0;dashed=1;exitX=0.004;exitY=0.068;exitDx=0;exitDy=0;exitPerimeter=0;" parent="1" edge="1">
          <mxGeometry relative="1" as="geometry">
            <mxPoint x="658.56" y="563.632" as="sourcePoint" />
            <mxPoint x="550.24" y="486.534" as="targetPoint" />
            <Array as="points">
              <mxPoint x="550" y="564" />
            </Array>
          </mxGeometry>
        </mxCell>
        <mxCell id="QCXPvPY8s-q1p6xJHHhA-61" value="Prestamo" style="swimlane;fontStyle=0;childLayout=stackLayout;horizontal=1;startSize=26;fillColor=none;horizontalStack=0;resizeParent=1;resizeParentMax=0;resizeLast=0;collapsible=1;marginBottom=0;" parent="1" vertex="1">
          <mxGeometry x="659" y="536" width="140" height="98" as="geometry" />
        </mxCell>
        <mxCell id="QCXPvPY8s-q1p6xJHHhA-62" value="- dias: int = 30" style="text;strokeColor=none;fillColor=none;align=left;verticalAlign=top;spacingLeft=4;spacingRight=4;overflow=hidden;rotatable=0;points=[[0,0.5],[1,0.5]];portConstraint=eastwest;" parent="QCXPvPY8s-q1p6xJHHhA-61" vertex="1">
          <mxGeometry y="26" width="140" height="24" as="geometry" />
        </mxCell>
        <mxCell id="QCXPvPY8s-q1p6xJHHhA-68" value="- fechaInicio: Date" style="text;strokeColor=none;fillColor=none;align=left;verticalAlign=top;spacingLeft=4;spacingRight=4;overflow=hidden;rotatable=0;points=[[0,0.5],[1,0.5]];portConstraint=eastwest;" parent="QCXPvPY8s-q1p6xJHHhA-61" vertex="1">
          <mxGeometry y="50" width="140" height="24" as="geometry" />
        </mxCell>
        <mxCell id="QCXPvPY8s-q1p6xJHHhA-69" value="- fechaFinal: Date" style="text;strokeColor=none;fillColor=none;align=left;verticalAlign=top;spacingLeft=4;spacingRight=4;overflow=hidden;rotatable=0;points=[[0,0.5],[1,0.5]];portConstraint=eastwest;" parent="QCXPvPY8s-q1p6xJHHhA-61" vertex="1">
          <mxGeometry y="74" width="140" height="24" as="geometry" />
        </mxCell>
        <mxCell id="QCXPvPY8s-q1p6xJHHhA-70" value="Multa" style="swimlane;fontStyle=0;childLayout=stackLayout;horizontal=1;startSize=26;fillColor=none;horizontalStack=0;resizeParent=1;resizeParentMax=0;resizeLast=0;collapsible=1;marginBottom=0;" parent="1" vertex="1">
          <mxGeometry x="639" y="740" width="140" height="98" as="geometry" />
        </mxCell>
        <mxCell id="QCXPvPY8s-q1p6xJHHhA-71" value="- dias: int = 30" style="text;strokeColor=none;fillColor=none;align=left;verticalAlign=top;spacingLeft=4;spacingRight=4;overflow=hidden;rotatable=0;points=[[0,0.5],[1,0.5]];portConstraint=eastwest;" parent="QCXPvPY8s-q1p6xJHHhA-70" vertex="1">
          <mxGeometry y="26" width="140" height="24" as="geometry" />
        </mxCell>
        <mxCell id="QCXPvPY8s-q1p6xJHHhA-72" value="- fechaInicio: Date" style="text;strokeColor=none;fillColor=none;align=left;verticalAlign=top;spacingLeft=4;spacingRight=4;overflow=hidden;rotatable=0;points=[[0,0.5],[1,0.5]];portConstraint=eastwest;" parent="QCXPvPY8s-q1p6xJHHhA-70" vertex="1">
          <mxGeometry y="50" width="140" height="24" as="geometry" />
        </mxCell>
        <mxCell id="QCXPvPY8s-q1p6xJHHhA-73" value="- fechaFinal: Date" style="text;strokeColor=none;fillColor=none;align=left;verticalAlign=top;spacingLeft=4;spacingRight=4;overflow=hidden;rotatable=0;points=[[0,0.5],[1,0.5]];portConstraint=eastwest;" parent="QCXPvPY8s-q1p6xJHHhA-70" vertex="1">
          <mxGeometry y="74" width="140" height="24" as="geometry" />
        </mxCell>
        <mxCell id="QCXPvPY8s-q1p6xJHHhA-75" value="1" style="edgeLabel;resizable=0;html=1;align=left;verticalAlign=top;" parent="1" connectable="0" vertex="1">
          <mxGeometry x="709" y="709.998" as="geometry" />
        </mxCell>
        <mxCell id="QCXPvPY8s-q1p6xJHHhA-76" value="{dias&amp;gt;30}" style="text;html=1;align=center;verticalAlign=middle;resizable=0;points=[];autosize=1;strokeColor=none;fillColor=none;" parent="1" vertex="1">
          <mxGeometry x="642" y="715" width="70" height="30" as="geometry" />
        </mxCell>
        <mxCell id="QCXPvPY8s-q1p6xJHHhA-77" value="0..3" style="edgeLabel;resizable=0;html=1;align=left;verticalAlign=top;" parent="1" connectable="0" vertex="1">
          <mxGeometry x="529.0000000000001" y="455.00199999999995" as="geometry" />
        </mxCell>
        <mxCell id="QCXPvPY8s-q1p6xJHHhA-78" value="1" style="edgeLabel;resizable=0;html=1;align=left;verticalAlign=top;" parent="1" connectable="0" vertex="1">
          <mxGeometry x="529.0000000000001" y="609.002" as="geometry" />
        </mxCell>
        <mxCell id="Nirqhqslk2zgD3UvHYaP-7" style="edgeStyle=orthogonalEdgeStyle;rounded=0;orthogonalLoop=1;jettySize=auto;html=1;exitX=0.5;exitY=0;exitDx=0;exitDy=0;dashed=1;endArrow=block;endFill=0;entryX=0.5;entryY=1;entryDx=0;entryDy=0;" edge="1" parent="1" source="4_R0uis-ufL3FPCW5JWK-1" target="Nirqhqslk2zgD3UvHYaP-6">
          <mxGeometry relative="1" as="geometry">
            <mxPoint x="480" y="540" as="targetPoint" />
            <Array as="points">
              <mxPoint x="399" y="560" />
              <mxPoint x="494" y="560" />
            </Array>
          </mxGeometry>
        </mxCell>
        <mxCell id="4_R0uis-ufL3FPCW5JWK-1" value="Persona" style="swimlane;fontStyle=0;childLayout=stackLayout;horizontal=1;startSize=26;fillColor=none;horizontalStack=0;resizeParent=1;resizeParentMax=0;resizeLast=0;collapsible=1;marginBottom=0;" vertex="1" parent="1">
          <mxGeometry x="319" y="574" width="160" height="130" as="geometry" />
        </mxCell>
        <mxCell id="4_R0uis-ufL3FPCW5JWK-2" value="- DNI: String" style="text;strokeColor=none;fillColor=none;align=left;verticalAlign=top;spacingLeft=4;spacingRight=4;overflow=hidden;rotatable=0;points=[[0,0.5],[1,0.5]];portConstraint=eastwest;" vertex="1" parent="4_R0uis-ufL3FPCW5JWK-1">
          <mxGeometry y="26" width="160" height="26" as="geometry" />
        </mxCell>
        <mxCell id="Nirqhqslk2zgD3UvHYaP-5" value="- nombres: String" style="text;strokeColor=none;fillColor=none;align=left;verticalAlign=top;spacingLeft=4;spacingRight=4;overflow=hidden;rotatable=0;points=[[0,0.5],[1,0.5]];portConstraint=eastwest;" vertex="1" parent="4_R0uis-ufL3FPCW5JWK-1">
          <mxGeometry y="52" width="160" height="26" as="geometry" />
        </mxCell>
        <mxCell id="Nirqhqslk2zgD3UvHYaP-1" value="- apellido: String" style="text;strokeColor=none;fillColor=none;align=left;verticalAlign=top;spacingLeft=4;spacingRight=4;overflow=hidden;rotatable=0;points=[[0,0.5],[1,0.5]];portConstraint=eastwest;" vertex="1" parent="4_R0uis-ufL3FPCW5JWK-1">
          <mxGeometry y="78" width="160" height="26" as="geometry" />
        </mxCell>
        <mxCell id="Nirqhqslk2zgD3UvHYaP-2" value="- nacionalidad: String" style="text;strokeColor=none;fillColor=none;align=left;verticalAlign=top;spacingLeft=4;spacingRight=4;overflow=hidden;rotatable=0;points=[[0,0.5],[1,0.5]];portConstraint=eastwest;" vertex="1" parent="4_R0uis-ufL3FPCW5JWK-1">
          <mxGeometry y="104" width="160" height="26" as="geometry" />
        </mxCell>
        <mxCell id="Nirqhqslk2zgD3UvHYaP-6" value="«interface»&lt;br&gt;&lt;b&gt;Serializable&lt;/b&gt;" style="html=1;whiteSpace=wrap;fillColor=#d5e8d4;strokeColor=#82b366;" vertex="1" parent="1">
          <mxGeometry x="449" y="490" width="90" height="30" as="geometry" />
        </mxCell>
      </root>
    </mxGraphModel>
  </diagram>
  <diagram id="BeW_isxZwhVQGhecksNV" name="Página-2">
    <mxGraphModel dx="1360" dy="746" grid="1" gridSize="10" guides="1" tooltips="1" connect="1" arrows="1" fold="1" page="1" pageScale="1" pageWidth="827" pageHeight="1169" math="0" shadow="0">
      <root>
        <mxCell id="0" />
        <mxCell id="1" parent="0" />
        <mxCell id="W8FUhObmASbROdHtW3Nj-1" value="«interface»&lt;br&gt;&lt;b&gt;AbstractTableModel&lt;/b&gt;" style="html=1;whiteSpace=wrap;fillColor=#d5e8d4;strokeColor=#82b366;" vertex="1" parent="1">
          <mxGeometry x="330" y="150" width="130" height="50" as="geometry" />
        </mxCell>
        <mxCell id="W8FUhObmASbROdHtW3Nj-6" style="edgeStyle=orthogonalEdgeStyle;rounded=0;orthogonalLoop=1;jettySize=auto;html=1;entryX=0.454;entryY=1.04;entryDx=0;entryDy=0;entryPerimeter=0;endArrow=block;endFill=0;dashed=1;" edge="1" parent="1" source="W8FUhObmASbROdHtW3Nj-2" target="W8FUhObmASbROdHtW3Nj-1">
          <mxGeometry relative="1" as="geometry" />
        </mxCell>
        <mxCell id="W8FUhObmASbROdHtW3Nj-2" value="ModeloTableAutor" style="swimlane;fontStyle=0;childLayout=stackLayout;horizontal=1;startSize=26;fillColor=none;horizontalStack=0;resizeParent=1;resizeParentMax=0;resizeLast=0;collapsible=1;marginBottom=0;whiteSpace=wrap;html=1;" vertex="1" parent="1">
          <mxGeometry x="320" y="290" width="140" height="52" as="geometry" />
        </mxCell>
        <mxCell id="wP39wur112FRK7SAK-2y-5" value="lista" style="edgeStyle=orthogonalEdgeStyle;rounded=0;orthogonalLoop=1;jettySize=auto;html=1;entryX=0;entryY=0.115;entryDx=0;entryDy=0;entryPerimeter=0;endArrow=diamondThin;endFill=0;startArrow=open;startFill=0;" edge="1" parent="1" source="wP39wur112FRK7SAK-2y-1">
          <mxGeometry relative="1" as="geometry">
            <mxPoint x="320" y="318.99" as="targetPoint" />
          </mxGeometry>
        </mxCell>
        <mxCell id="wP39wur112FRK7SAK-2y-1" value="Autor" style="swimlane;fontStyle=0;childLayout=stackLayout;horizontal=1;startSize=26;fillColor=none;horizontalStack=0;resizeParent=1;resizeParentMax=0;resizeLast=0;collapsible=1;marginBottom=0;" vertex="1" parent="1">
          <mxGeometry x="41" y="267" width="160" height="104" as="geometry" />
        </mxCell>
        <mxCell id="wP39wur112FRK7SAK-2y-2" value="- nombre: String" style="text;strokeColor=none;fillColor=none;align=left;verticalAlign=top;spacingLeft=4;spacingRight=4;overflow=hidden;rotatable=0;points=[[0,0.5],[1,0.5]];portConstraint=eastwest;" vertex="1" parent="wP39wur112FRK7SAK-2y-1">
          <mxGeometry y="26" width="160" height="26" as="geometry" />
        </mxCell>
        <mxCell id="wP39wur112FRK7SAK-2y-3" value="- nacionalidad: String" style="text;strokeColor=none;fillColor=none;align=left;verticalAlign=top;spacingLeft=4;spacingRight=4;overflow=hidden;rotatable=0;points=[[0,0.5],[1,0.5]];portConstraint=eastwest;" vertex="1" parent="wP39wur112FRK7SAK-2y-1">
          <mxGeometry y="52" width="160" height="26" as="geometry" />
        </mxCell>
        <mxCell id="wP39wur112FRK7SAK-2y-4" value="- fechaNacionalidad: String" style="text;strokeColor=none;fillColor=none;align=left;verticalAlign=top;spacingLeft=4;spacingRight=4;overflow=hidden;rotatable=0;points=[[0,0.5],[1,0.5]];portConstraint=eastwest;" vertex="1" parent="wP39wur112FRK7SAK-2y-1">
          <mxGeometry y="78" width="160" height="26" as="geometry" />
        </mxCell>
        <mxCell id="wP39wur112FRK7SAK-2y-6" value="0..*" style="text;html=1;align=center;verticalAlign=middle;resizable=0;points=[];autosize=1;strokeColor=none;fillColor=none;" vertex="1" parent="1">
          <mxGeometry x="205" y="290" width="40" height="30" as="geometry" />
        </mxCell>
      </root>
    </mxGraphModel>
  </diagram>
</mxfile>
